# xmcd
#
# Track frame offsets: 
#        150
#        19885
#        37190
#        52131
#        65457
#        73791
#        84879
#        102961
#        127376
#        146878
#
# Disc length: 2237 seconds
#
# Revision: 0
# Processed by: cddbd v1.5.2PL0 Copyright (c) Steve Scherf et al.
# Submitted via: ExactAudioCopy v0.90b4
#
DISCID=9c08bb0a
DTITLE=Blue forTwo - Tune the Piano, Hand Me a Razor
DYEAR=2012
DGENRE=Blues
TTITLE0=Cherokee Dance
TTITLE1=Lion's Den
TTITLE2=Dark Rising
TTITLE3=Derailroaded
TTITLE4=Riot Without Reason
TTITLE5=Uggly Child
TTITLE6=Living for Today
TTITLE7=Crawler
TTITLE8=I'm Your Witch Doctor
TTITLE9=We Don't Dance
EXTD=
EXTT0=
EXTT1=
EXTT2=
EXTT3=
EXTT4=
EXTT5=
EXTT6=
EXTT7=
EXTT8=
EXTT9=
PLAYORDER=
